<svg width="512" height="512" viewBox="0 0 512 512" xmlns="http://www.w3.org/2000/svg">
  <defs>
    <linearGradient id="grad1" x1="0%" y1="0%" x2="100%" y2="100%">
      <stop offset="0%" style="stop-color:#4f46e5;stop-opacity:1" />
      <stop offset="100%" style="stop-color:#7c3aed;stop-opacity:1" />
    </linearGradient>
    <linearGradient id="grad2" x1="0%" y1="0%" x2="100%" y2="0%">
      <stop offset="0%" style="stop-color:#fbbf24;stop-opacity:1" />
      <stop offset="100%" style="stop-color:#f59e0b;stop-opacity:1" />
    </linearGradient>
  </defs>
  
  <!-- Background circle -->
  <circle cx="256" cy="256" r="240" fill="url(#grad1)" stroke="#ffffff" stroke-width="8"/>
  
  <!-- Équerre (L-shaped ruler) -->
  <g transform="translate(256,256) rotate(-15)">
    <!-- Bras horizontal de l'équerre -->
    <rect x="-120" y="-15" width="180" height="30" fill="url(#grad2)" stroke="#ffffff" stroke-width="3" rx="4"/>
    <!-- Bras vertical de l'équerre -->
    <rect x="-15" y="-120" width="30" height="180" fill="url(#grad2)" stroke="#ffffff" stroke-width="3" rx="4"/>
    
    <!-- Graduations sur le bras horizontal -->
    <g stroke="#ffffff" stroke-width="2" opacity="0.9">
      <line x1="-100" y1="-10" x2="-100" y2="10"/>
      <line x1="-80" y1="-8" x2="-80" y2="8"/>
      <line x1="-60" y1="-10" x2="-60" y2="10"/>
      <line x1="-40" y1="-8" x2="-40" y2="8"/>
      <line x1="-20" y1="-10" x2="-20" y2="10"/>
      <line x1="20" y1="-8" x2="20" y2="8"/>
      <line x1="40" y1="-10" x2="40" y2="10"/>
    </g>
    
    <!-- Graduations sur le bras vertical -->
    <g stroke="#ffffff" stroke-width="2" opacity="0.9">
      <line x1="-10" y1="-100" x2="10" y2="-100"/>
      <line x1="-8" y1="-80" x2="8" y2="-80"/>
      <line x1="-10" y1="-60" x2="10" y2="-60"/>
      <line x1="-8" y1="-40" x2="8" y2="-40"/>
      <line x1="-10" y1="-20" x2="10" y2="-20"/>
      <line x1="-8" y1="20" x2="8" y2="20"/>
      <line x1="-10" y1="40" x2="10" y2="40"/>
    </g>
    
    <!-- Angle droit (symbole) -->
    <path d="M -15 -15 L -5 -15 L -5 -5" fill="none" stroke="#ffffff" stroke-width="2" opacity="0.8"/>
  </g>
  
  <!-- Template/Document en arrière-plan -->
  <g opacity="0.3">
    <rect x="320" y="120" width="140" height="180" rx="8" fill="#ffffff" stroke="#ffffff" stroke-width="2"/>
    <rect x="330" y="140" width="120" height="8" fill="#ffffff" opacity="0.6"/>
    <rect x="330" y="160" width="100" height="6" fill="#ffffff" opacity="0.5"/>
    <rect x="330" y="180" width="110" height="6" fill="#ffffff" opacity="0.5"/>
    <rect x="330" y="200" width="90" height="6" fill="#ffffff" opacity="0.5"/>
  </g>
  
  <!-- Petits éléments de design -->
  <circle cx="380" cy="350" r="8" fill="#ffffff" opacity="0.4"/>
  <circle cx="400" cy="370" r="6" fill="#ffffff" opacity="0.3"/>
  <rect x="360" y="380" width="20" height="4" rx="2" fill="#ffffff" opacity="0.4"/>
</svg>
